<?xml version="1.0" encoding="UTF-8"?><svg id="Layer_2" xmlns="http://www.w3.org/2000/svg" viewBox="0 0 469.06 468.15"><defs><style>.cls-1{fill:#fff;}</style></defs><g id="Layer_1-2"><g id="Logo"><circle class="cls-1" cx="234.53" cy="234.07" r="230.21"/><path d="M469.06,234.07c0,129.28-105,234.07-234.53,234.07S0,363.35,0,234.07,105,0,234.53,0s234.53,104.8,234.53,234.07ZM455.29,234.06c0-121.71-98.85-220.37-220.8-220.37S13.69,112.35,13.69,234.06s98.85,220.37,220.8,220.37,220.8-98.66,220.8-220.37Z"/><path d="M312.61,133.91c13.38,7.76,28.75,18.09,39.39,30.04,4.59,5.15,9.55,10.53,6.66,17.68-9.03,13.96-27.47,58.45-42.45,64.42-4.03,1.61-8.88,1.9-13.07.6-2.81-.87-5.04-4.18-5.68-4.33-2.26-.52-6.83,12.18-7.37,14.58-3.16,14.07-.26,37.4-12.6,47.31-1.62,1.3-5.9,2.68-6.28,3.21-2.6,3.61-.08,16.1-5.81,23.64-4.04,5.3-8.15,5.07-11.94,8.04-3.47,2.72-4.84,9.84-11.13,13.84-10.8,6.87-16.94,1.3-23.75-6.91-1.66-2-2.77-5.42-4.13-6.86-3.8-4.04-10.57-2.97-14.64-12.33-2.79-6.41-.48-14.01-2.55-18.42-1.25-2.67-5.72-3.56-7.92-5.57-9.98-9.14-8.36-31.41-10.61-43.81-1.09-6.01-4.02-11.91-5.75-17.73-2.85-.02-3.82,3.13-6.26,4.23-5.99,2.7-13.77,1.51-18.8-2.66s-16.35-22.2-19.75-28.2c-4.78-8.43-12.59-22.09-16.38-30.56-4.34-9.67-1.57-13.51,5.3-21.05,14.02-15.36,45.94-35.08,65.39-42.52,7.89-3.01,9.68-4.47,17.03.97,1.28.95,1.45,3.28,3.13,3.86,3.97,1.37,14.56-.51,19.78.22,3.62.5,7.48,2.95,12.06,3.01,5.17.07,10.75-2.6,16.01-3.06,3.63-.32,15.8,1.21,16.81.88,2.98-.95,3.56-9.19,13.1-7.84,8.63,1.22,24.31,10.73,32.21,15.31ZM339.42,162.06c-17.35-15.63-37.59-27.9-59.44-36.51-1,3.61,1.69,2.81,2.98,4.46,13.76,17.52,12.68,72.06,15.11,94.74.96,8.98,3.78,18.32,14.73,14.91,6.28-1.96,19.23-23.56,22.98-29.96,3.78-6.45,13.28-22.38,15.42-28.53,3.01-8.64-6.41-14.27-11.79-19.11ZM188.97,126.54c-2.11-.27-3.73.06-5.7.79-16.45,6.04-47.94,26.94-60.33,39.59-3.82,3.9-6.42,8.1-4.74,13.8,1.02,3.48,8.98,15.21,11.3,19.65,2.06,3.93,3.53,8.54,5.66,12.32,2.6,4.6,16.37,25.19,20.52,26.42,16.54,4.9,14.4-18.44,15.37-28.16,1.92-19.16,3.87-62.09,13.51-78.33,1.3-2.18,4.47-3.21,4.41-6.07ZM276.6,294.86c4.5-8.54,4.41-28.95,6.82-39.61,1.24-5.47,9.41-19.91,9.48-21.39.08-1.73-1.75-4.45-1.94-7.01-.59-7.76.52-16.14,0-23.95-1.32-19.74-5.02-39.4-9.21-58.68-1.04-2.1-8.74-7.9-11.06-8.92-12.89-5.64-29.87.91-44.25-.75-2.47-.29-4.12-1.77-6.02-1.97-13.25-1.38-21.52,2.16-32.26,9.11.17,4.26-2.03,7.69-2.93,11.55-4.88,21-7.49,50.86-8.29,72.57-.48,13,5.11,16.1,7.95,27.08,3.19,12.32,1.23,28.84,5.84,40.08,5.44,13.27,31.78,9.39,38.73-1.77l.36-24.27c-7.37-6.74-13.04-19.59-16.86-29.09-5.91-14.73-8.63-20.49,9.81-24.17,8.47-1.69,15.82-1.79,24.25.15,16.11,3.72,15.26,9.59,9.43,23.49-1.63,3.9-12.05,25.37-13.95,26.99-1.12.95-3.25.95-4.03,1.92s-.79,22.5.16,24.76c.54,1.28,7.11,6.62,8.64,7.43,7.72,4.07,24.76,5.13,29.33-3.55ZM240.66,345.8c1.78-1.91,6.61-10.86,7.08-13.4,1.35-7.24-.87-16.94,1.96-23.73-1.39-3.36-5.36-3.29-7.69-5.02-2.56-1.91-5.3-6.81-8.49-6.5-2.16.21-5.06,4.38-7.22,5.88s-7.75,3.23-8.24,4.83c2.15,12.93-1.16,24.32,7.28,35.38,4.39,5.76,9.31,9.02,15.31,2.56ZM212.97,330.14l-1.13-20.32-1.5-1.5-6.37-.14c1.3,7.24.53,19.44,9,21.95ZM254.98,330.14c1.13,1.28,6.08-4.41,6.55-5.93.34-1.09,2.04-12.72,2.04-13.97.02-3.35-6.39-2.77-7.4.64-1.31,4.45.28,13.97-1.2,19.26Z"/><path d="M312.97,392.02c4.48-.68,4.87,2.98,9.48,3.09,13.46.3,28.46-13.3,24.53-27.5-3.49-2.15-5.06,4.54-7.61,7.34-9.36,10.25-28.58,15.77-40.3,6.51-19.71-15.57-4.56-38.56,13.67-47.06,15.42-7.19,29.08-2.99,39.75,9.71,18.76,22.33,10.87,51.4-16.24,61.66-7.1,2.69-14.83,2.06-20.91,6.11l-2.36-1.39v-18.46ZM332.73,348.36c-1.26-1.15-7.15-2.23-9.1-2.17-9.64.27-22.47,10.94-16.11,20.84s26.07.39,27.41-9.52c.33-2.4-.44-7.54-2.2-9.15Z"/><path d="M145.74,328.35l1.21,4.75c-6.43.1-7.43,6.65-10.17,11.33-1.61,2.76-5.18,4.99-4.82,8.66l35-3.98,1.52-6,22.85,13.1c2.63,1.42,2.24,4.43-.88,4.86-13.37.39-26.83,2.72-40.06,4.93-1.89,6.68,1.53,13.27,2.46,19.63,1.18,8.1,1.53,17.69,3.34,25.61.68,2.96,4.84,6.07,1.24,8.72-1.35.28-22.89-13.26-23.43-14.52-1.55-3.61,3.25-1.82,3.84-4.01l-5.85-32.95c-3.12.72-9.56-.19-11.55,1.57-.63.56-7.97,13.84-8.22,14.75-.55,2.06-.26,4.14-.27,6.22-1.96,2.13-16.95-9.37-19.99-10.49.04-3.13,3.9-2.87,5.44-4.54,6.83-7.42,20.06-33.48,26.15-43.77,2.83-4.77,5.89-5.36,3.42-12.04,3.09-4.12,14.45,9.07,18.77,8.17Z"/><path d="M359.98,69.66c1.74-1.79,12.57,5.22,13.98,7.48-5.51,4.85-10.11,13.46-13.81,20.14-2.53,4.57-6.51,11.06-8.4,15.57-.97,2.31-.2,5.03-2.3,6.71l-12.37-6.11c1.59-13.95-6.24-27.06-8.12-40.8-.84-.66-10.56,16.47-11.36,18.09-1.57,3.2-1.77,5.89-3.15,8.85l-12.48-6.5c9.89-13.24,17.45-28.26,24.55-43.35,1.49-.23,13.49,6.7,14.02,7.94.31.73-3,5.16-1.52,7.41l8.45,30.49,12.93-20.91-.42-5.02Z"/><path d="M76.99,193.4c-.09-.83-.39-1.92-.98-2.48-3.55-3.39-29.93-18.76-35.1-20.92-1.63-.68-3.24-.66-4.95-.55-.27-2.52.59-4.66,1.61-6.88,2.11-4.6,13.24-23.31,16.41-26.54,7.38-7.51,16.26-8.61,25.68-4.69,14.48,6.02,21.27,18.35,15.18,33.49-1.56,3.89-13.1,25.03-15.41,27.54-.82.89-1,1.35-2.44,1.03ZM51.09,162.36l25.25,14c1.78-.3,9.87-15.39,10.4-17.67,2.03-8.6-12.11-18.09-20.18-17.16-7.14.82-14.97,14.25-15.48,20.83Z"/><path d="M414.88,145.6c-1.46-1.02-8.29,1.76-8.81,3.55-.38,1.32,4.01,12.47,4.97,14.55,1.13,2.46,6.77,4.72-.06,8.25-9.74,5.05-7.89-3.42-10.3-9.69-.56-1.46-3.61-8.19-4.3-8.71-2.61-1.99-11.29,1.91-10.19,6.16,1.45,5.6,7.33,17.04,10.04,22.97.71,1.55,2.59,2.49,2.8,4.28l-.12,1.84c-.58,1.71-9.25,4.42-10.98,3.18-1.96-1.65-.1-3.98-.46-5.69-.33-1.6-3.99-7.32-4.97-9.87-3.59-9.37-6.99-18.78-11.07-27.94l45.85-18.84c.92.23,2.73,2.03,3.16,2.94,4.43,9.35,7.11,21.62,11.82,31.12,1.01,2.04,4.78,6.02,4.79,7.26.02,1.96-10.72,7.62-11.88,3.81-.4-1.32.02-3.04-.47-4.52-2.69-8.13-7.48-16.3-9.8-24.65Z"/><path d="M209.96,35.75c.93,1.27-2.33,7.86-2.71,9.72-1.94,9.47-5.25,23.62-6.16,32.76-.37,3.66-.2,6.87.9,10.37l-16,3-.55-4.94c-8.93-9.49-15.97-21.77-24.46-31.48-1.97-2.26-5.3-3.01-5.95-5.88.51-3.01,12.38-3.39,15.42-5.59l1.36,1.67c.22,1.8.01,3.54.71,5.28.58,1.44,13.15,17.26,15.23,19.73,5.66,6.72,3.71-4.72,4.31-8.14.68-3.91,2.61-7.83,2.9-12.07s-.6-7.56-.57-11.52c2.81-.48,13.96-5.11,15.58-2.91Z"/><path d="M273.97,40.69c-.79.11-2.09.31-2.5.96-.63,1.01-3.14,20.35-3.48,23.52-.75,7.13-.77,15.24-1.01,22.45-2.47-.11-5.02.21-7.49-.02-12.02-1.11-5.51-3.35-4.6-9.55.34-2.29-.2-4.68.09-6.9,1.47-11.39,3.97-23,3.05-34.39.83-1.21,15.14.47,15.94,2.46v1.46Z"/><path d="M111.97,75.63c0,1.3-.06,2.8.47,4.01,1.37,3.12,21.46,28.44,24.49,31.2,1.41,1.29,3.88,1.16,5.02,3.22-2.28,1.14-10.13,9.25-11.64,9.38-2.81.25-2.57-4.69-3.7-6.54-1.45-2.37-21.48-27.83-22.91-29.01-1.54-1.28-4.4-.79-5.71-2.77,1.71-1.66,12.26-11.23,13.97-9.49Z"/><path d="M220.47,392.04c6.27,5.3,16.21,3.29,22.99-.02,1.51.41,3.2,15.26,2.04,16.99-2.12,3.16-4.58-1.33-6.22-1.82-1.77-.54-6.82-.46-8.82-.22-4.58.56-4.98,3.49-8.96,4.01-2.18-.59-4-18.78-1.02-18.94Z"/><path d="M212.71,185.68c1.83,1.92,2.62,15.44,1.36,18.31-2.22,5.08-10.69,6.89-14.56,1.35-7.4-10.6,5.8-27.44,13.2-19.66Z"/><path d="M268.69,207.1c-3.76,3.74-11.17,2.04-13.51-2.43-1.94-3.71-.79-17.29,2.46-19.33,11.52-7.23,17.61,15.23,11.05,21.75Z"/><path d="M184.36,181.79c.53-.8,5.34-5.42,6.41-6.34,4.79-4.1,24.08-17.76,28.47-8.77,1.13,2.31,1.28,6.04-1.28,7.33-2.34,1.18-3.93-1.97-5.73-2.37-7.63-1.69-22.72,18.61-27.25,16.34l-1.87-2.27c-.42-1.65.41-2.67,1.24-3.92Z"/><path d="M281.55,178.86c1.66,1.64,8.03,7.1,4.29,9.44-4.06,2.54-8.66-4.76-11.4-6.83s-13.32-9.55-16.13-9.79-5.68,4.73-8.9.79l2.22-8.09c11.04-2,22.48,7.14,29.92,14.49Z"/><path d="M231.22,302.45c.94-.98,3.23-1.58,4.31-.37,4.83,3.93,1.74,27.15,1.44,33.54-.08,1.83,1.17,3.68,1,5.89-.47,5.91-7.18,6.62-8.04.14-.98-7.41-.67-26.26,0-34.02.14-1.61.14-4,1.29-5.19Z"/></g></g></svg>